<?xml version="1.0" encoding="utf-8"?>
<!-- Generator: Adobe Illustrator 22.1.0, SVG Export Plug-In . SVG Version: 6.00 Build 0)  -->
<svg version="1.1" id="Layer_1" xmlns="http://www.w3.org/2000/svg" xmlns:xlink="http://www.w3.org/1999/xlink" x="0px" y="0px"
	 viewBox="0 0 329.3 214.7" style="enable-background:new 0 0 329.3 214.7;" xml:space="preserve">
<style type="text/css">
	.st0{fill:none;}
	.st1{fill:#C9C9C9;}
	.st2{fill:#F4F4F4;}
	.st3{fill:#494949;}
	.st4{fill:#AFAFAF;}
</style>
<title>retry</title>
<circle class="st0" cx="240.6" cy="54.5" r="3"/>
<path class="st0" d="M62.6,111.5c1.7,0,3-1.3,3-3s-1.3-3-3-3s-3,1.3-3,3l0,0c-0.1,1.6,1.2,2.9,2.8,3
	C62.5,111.5,62.5,111.5,62.6,111.5z"/>
<path class="st1" d="M92.1,184.1H1.7c-0.9,0-1.7,0.8-1.7,1.7c0,0.9,0.8,1.7,1.7,1.7h90.4c0.9,0,1.7-0.8,1.7-1.7
	C93.8,184.9,93,184.1,92.1,184.1z"/>
<path class="st1" d="M224.4,187.5h18.9c0.9,0,1.7-0.8,1.7-1.7c0-0.9-0.8-1.7-1.7-1.7h-15.6L224.4,187.5z"/>
<path class="st1" d="M298.7,184.1h-45.1c-0.9,0-1.7,0.8-1.7,1.7c0,0.9,0.8,1.7,1.7,1.7c0,0,0,0,0,0h45.1c0.9,0,1.7-0.8,1.7-1.7
	C300.4,184.9,299.6,184.1,298.7,184.1z"/>
<path class="st1" d="M82.9,209.2H43c-0.9,0-1.7,0.8-1.7,1.7c0,0.9,0.8,1.7,1.7,1.7c0,0,0,0,0,0h39.9c0.9,0,1.7-0.8,1.7-1.7
	C84.6,210,83.8,209.2,82.9,209.2z"/>
<path class="st1" d="M252.9,209.2H213c-0.9,0-1.7,0.8-1.7,1.7c0,0.9,0.8,1.7,1.7,1.7h39.9c0.9,0,1.7-0.8,1.7-1.7
	C254.6,210,253.8,209.2,252.9,209.2z"/>
<path class="st1" d="M285.5,209.2h-16.6c-0.9,0-1.7,0.8-1.7,1.7c0,0.9,0.8,1.7,1.7,1.7c0,0,0,0,0,0h16.6c0.9,0,1.7-0.8,1.7-1.7
	C287.2,210,286.4,209.2,285.5,209.2z"/>
<path class="st1" d="M141.8,209.2H96.7c-0.9,0-1.7,0.8-1.7,1.7c0,0.9,0.8,1.7,1.7,1.7h45.1c0.9,0,1.7-0.8,1.7-1.7
	C143.5,210,142.7,209.2,141.8,209.2L141.8,209.2z"/>
<path class="st1" d="M327.6,184.1h-17.9c-0.9,0-1.7,0.8-1.7,1.7c0,0.9,0.8,1.7,1.7,1.7c0,0,0,0,0,0h17.9c0.9,0,1.7-0.8,1.7-1.7
	C329.3,184.9,328.5,184.1,327.6,184.1z"/>
<path class="st2" d="M213.1,190.7c20-14.7,31.9-38.1,31.9-62.9c0-7.8-1.2-15.6-3.5-23.1c-10-32.7-40.3-55-74.5-54.9
	c-7.8,0-15.6,1.2-23.1,3.5c-32.7,10-55,40.3-54.9,74.5c0,7.8,1.2,15.6,3.5,23.1c10,32.7,40.3,55,74.5,54.9c7.8,0,15.6-1.2,23.1-3.5
	c1.2-0.3,2.5,0.3,3,1.5c6.9-2.4,13.5-5.6,19.5-9.8C211.8,192.9,212.1,191.5,213.1,190.7z M181.1,128c2.4,0,4.3,1.9,4.3,4.3
	s-1.9,4.3-4.3,4.3c-2.4,0-4.3-1.9-4.3-4.3C176.8,129.9,178.7,128,181.1,128L181.1,128z M95.8,130.6v1H92v-3.3
	c0.1-41.6,33.8-75.3,75.4-75.4h0.9v2.9h-0.9C127.5,57.9,96.1,90.6,95.8,130.6z M154.9,132.3c0,2.4-1.9,4.3-4.3,4.3s-4.3-1.9-4.3-4.3
	c0-2.4,1.9-4.3,4.3-4.3C153,128,154.9,129.9,154.9,132.3L154.9,132.3z M200.7,162.7c-0.3,0.6-0.9,1-1.5,1l-0.7-0.2
	c-15.6-7.2-61.3-3-61.7-2.9c-0.9,0.1-1.8-0.6-1.9-1.5s0.6-1.8,1.5-1.9l0,0c2-0.2,47.1-4.3,63.5,3.3c0.8,0.3,1.2,1.3,0.8,2.1
	C200.7,162.6,200.7,162.7,200.7,162.7z"/>
<path class="st3" d="M193.1,203.8c-0.5-1.2-1.8-1.8-3-1.5c-7.5,2.3-15.3,3.5-23.1,3.5c-34.2,0.1-64.5-22.2-74.5-54.9
	c-2.3-7.5-3.5-15.3-3.5-23.1c-0.1-34.2,22.2-64.5,54.9-74.5c7.5-2.3,15.3-3.5,23.1-3.5c34.2-0.1,64.5,22.2,74.5,54.9
	c2.3,7.5,3.5,15.3,3.5,23.1c0,24.8-11.9,48.2-31.9,62.9c-1,0.8-1.3,2.2-0.5,3.3l0,0c0.8,1,2.3,1.3,3.4,0.5c3-2.2,5.8-4.5,8.4-7.1
	l3.3-3.4c14.2-15.3,22.1-35.4,22.1-56.3c0-26.5-12.7-51.4-34.1-67C201.5,50.5,184.5,45,167,44.9c-26.5,0.1-51.4,12.8-67,34.2
	c-10.2,14.2-15.7,31.2-15.8,48.7c0,26.5,12.7,51.4,34.1,67c14.2,10.2,31.2,15.7,48.7,15.8c8.3,0,16.6-1.2,24.5-3.7
	c1.3-0.4,2-1.7,1.6-3c0,0,0,0,0,0V203.8z"/>
<path class="st4" d="M168.3,55.8v-2.9h-0.9C125.8,53,92.1,86.7,92,128.3v3.3h3.8v-1c0.3-40,31.7-72.7,71.6-74.8L168.3,55.8z"/>
<path class="st3" d="M146.3,132.3c0,2.4,1.9,4.3,4.3,4.3s4.3-1.9,4.3-4.3c0-2.4-1.9-4.3-4.3-4.3C148.2,128,146.3,129.9,146.3,132.3
	L146.3,132.3z"/>
<path class="st3" d="M181.1,136.6c2.4,0,4.3-1.9,4.3-4.3s-1.9-4.3-4.3-4.3c-2.4,0-4.3,1.9-4.3,4.3
	C176.8,134.7,178.7,136.6,181.1,136.6L181.1,136.6z"/>
<path class="st3" d="M199.9,160.5c-16.4-7.6-61.5-3.5-63.5-3.3c-0.9,0.1-1.6,1-1.5,1.9s1,1.6,1.9,1.5c0.4-0.1,46.1-4.3,61.7,2.9
	l0.7,0.2c0.6,0,1.2-0.4,1.5-1c0.4-0.8,0.1-1.8-0.7-2.2C200,160.5,199.9,160.5,199.9,160.5z"/>
<path class="st1" d="M277,102.9c0-0.4-0.3-0.7-0.7-0.7c-0.4,0-0.7,0.3-0.7,0.7c0,0,0,0,0,0v4.7h-7.7V100h8.4c0.4,0,0.7-0.3,0.7-0.7
	c0-0.4-0.3-0.7-0.7-0.7h-9.8V109H277V102.9z"/>
<path class="st1" d="M45.8,153.7c0-0.4-0.3-0.7-0.7-0.7s-0.7,0.3-0.7,0.7v4.7h-7.7v-7.6h8.4c0.4,0,0.7-0.3,0.7-0.7
	c0-0.4-0.3-0.7-0.7-0.7c0,0,0,0,0,0h-9.8v10.4h10.5V153.7z"/>
<path class="st1" d="M86.5,51.9l-3.8-4.8c-0.2-0.3-0.7-0.4-1-0.2c-0.3,0.2-0.4,0.7-0.2,1l3,3.8l-6,4.8l-4.8-5.9l6.7-5.3
	c0.4-0.2,0.5-0.7,0.3-1.1c-0.2-0.4-0.7-0.5-1.1-0.3c-0.1,0.1-0.2,0.1-0.3,0.2l-7.7,6.3l6.6,8.1L86.5,51.9z"/>
<path class="st1" d="M175.5,7.9l-3.8-4.8c-0.3-0.4-0.7-0.4-1.1-0.2c-0.3,0.3-0.3,0.7-0.1,1l3,3.8l-6,4.8l-4.8-5.9l6.7-5.3
	c0.3-0.3,0.3-0.8,0.1-1.1c-0.3-0.3-0.8-0.3-1.1-0.1l-7.7,6.3l6.6,8.1L175.5,7.9z"/>
<path class="st1" d="M62.6,112.5c2.2,0,4-1.8,4-4s-1.8-4-4-4c-2.2,0-4,1.8-4,4S60.4,112.5,62.6,112.5z M62.6,105.5c1.7,0,3,1.3,3,3
	s-1.3,3-3,3s-3-1.3-3-3c-0.1-1.6,1.2-2.9,2.8-3C62.5,105.5,62.5,105.5,62.6,105.5z"/>
<path class="st1" d="M240.6,58.5c2.2,0,4-1.8,4-4s-1.8-4-4-4s-4,1.8-4,4S238.4,58.5,240.6,58.5z M240.6,51.5c1.7,0,3,1.3,3,3
	s-1.3,3-3,3s-3-1.3-3-3c-0.1-1.6,1.2-2.9,2.8-3C240.5,51.5,240.5,51.5,240.6,51.5z"/>
</svg>
